<svg width="520" height="620" viewBox="0 0 520 620" fill="none" xmlns="http://www.w3.org/2000/svg">
  <rect width="520" height="620" rx="28" fill="#EEF6EF"/>
  <path d="M86 438C112 373 160 340 230 340H290C360 340 408 373 434 438L456 492C469 523 446 558 412 558H108C74 558 51 523 64 492L86 438Z" fill="#172018"/>
  <path d="M154 402C178 362 212 342 256 342H264C308 342 342 362 366 402L409 474H111L154 402Z" fill="#2D5C45"/>
  <path d="M201 359L260 424L319 359V504H201V359Z" fill="#F7F8F4"/>
  <path d="M215 374L260 424L305 374L323 398L260 469L197 398L215 374Z" fill="#F15F4A"/>
  <path d="M195 350C208 382 229 399 260 399C291 399 312 382 325 350V315H195V350Z" fill="#F4B092"/>
  <path d="M188 188C154 198 136 222 134 260C132 298 150 322 188 332V188Z" fill="#1B1E1A"/>
  <path d="M332 188C366 198 384 222 386 260C388 298 370 322 332 332V188Z" fill="#1B1E1A"/>
  <path d="M162 233C162 170 203 126 260 126C317 126 358 170 358 233V268C358 329 318 373 260 373C202 373 162 329 162 268V233Z" fill="#F8BE9F"/>
  <path d="M157 242C149 242 142 249 142 260C142 282 153 297 168 297L172 256C170 247 165 242 157 242Z" fill="#E99E83"/>
  <path d="M363 242C371 242 378 249 378 260C378 282 367 297 352 297L348 256C350 247 355 242 363 242Z" fill="#E99E83"/>
  <path d="M170 223C169 160 206 106 265 106C323 106 356 146 359 212C330 201 296 181 260 143C240 179 210 205 170 223Z" fill="#1B1E1A"/>
  <path d="M169 231C209 218 239 192 260 153C286 185 319 208 357 222C354 153 319 96 260 96C201 96 164 143 169 231Z" fill="#252921"/>
  <path d="M210 250C220 241 236 241 246 250" stroke="#172018" stroke-width="9" stroke-linecap="round"/>
  <path d="M274 250C284 241 300 241 310 250" stroke="#172018" stroke-width="9" stroke-linecap="round"/>
  <circle cx="231" cy="266" r="6" fill="#172018"/>
  <circle cx="289" cy="266" r="6" fill="#172018"/>
  <path d="M259 271L250 306H273" stroke="#D98770" stroke-width="7" stroke-linecap="round" stroke-linejoin="round"/>
  <path d="M228 324C245 339 275 339 292 324" stroke="#A4433F" stroke-width="8" stroke-linecap="round"/>
  <circle cx="202" cy="300" r="16" fill="#F3A48D" opacity="0.58"/>
  <circle cx="318" cy="300" r="16" fill="#F3A48D" opacity="0.58"/>
  <path d="M154 210C178 192 196 167 208 136C193 140 176 153 163 174C154 188 150 200 154 210Z" fill="#F15F4A"/>
  <path d="M318 128C342 143 356 171 361 212C330 203 300 183 270 153C285 134 301 126 318 128Z" fill="#F15F4A"/>
  <path d="M199 390L260 468L321 390" stroke="#172018" stroke-width="7" stroke-linecap="round" stroke-linejoin="round"/>
  <path d="M118 476H402" stroke="#F7F8F4" stroke-width="10" stroke-linecap="round" opacity="0.36"/>
  <circle cx="139" cy="108" r="15" fill="#24B46B"/>
  <circle cx="402" cy="150" r="10" fill="#F15F4A"/>
  <circle cx="395" cy="94" r="7" fill="#2D5C45"/>
  <path d="M121 127L139 108L157 127" stroke="#172018" stroke-width="7" stroke-linecap="round" stroke-linejoin="round"/>
</svg>
